<svg width="13" height="13" viewBox="0 0 13 13" fill="none" xmlns="http://www.w3.org/2000/svg">
<path d="M11.9167 6.49984H8.66671L7.58337 8.12484H5.41671L4.33337 6.49984H1.08337M11.9167 6.49984V9.74984C11.9167 10.0372 11.8026 10.3127 11.5994 10.5159C11.3962 10.719 11.1207 10.8332 10.8334 10.8332H2.16671C1.87939 10.8332 1.60384 10.719 1.40067 10.5159C1.19751 10.3127 1.08337 10.0372 1.08337 9.74984V6.49984M11.9167 6.49984L10.048 2.76775C9.95827 2.58726 9.82001 2.43537 9.64872 2.32916C9.47744 2.22294 9.27992 2.16661 9.07837 2.1665H3.92171C3.72016 2.16661 3.52264 2.22294 3.35136 2.32916C3.18007 2.43537 3.04181 2.58726 2.95212 2.76775L1.08337 6.49984" stroke="white" stroke-linecap="round" stroke-linejoin="round"/>
</svg>
