<svg width="13" height="13" viewBox="0 0 13 13" fill="none" xmlns="http://www.w3.org/2000/svg">
<g clip-path="url(#clip0_1_4259)">
<path d="M5.95837 2.16664H2.16671C1.87939 2.16664 1.60384 2.28077 1.40067 2.48394C1.19751 2.6871 1.08337 2.96265 1.08337 3.24997V10.8333C1.08337 11.1206 1.19751 11.3962 1.40067 11.5993C1.60384 11.8025 1.87939 11.9166 2.16671 11.9166H9.75004C10.0374 11.9166 10.3129 11.8025 10.5161 11.5993C10.7192 11.3962 10.8334 11.1206 10.8334 10.8333V7.04164M10.0209 1.35413C10.2364 1.13864 10.5286 1.01758 10.8334 1.01758C11.1381 1.01758 11.4304 1.13864 11.6459 1.35413C11.8614 1.56962 11.9824 1.86188 11.9824 2.16663C11.9824 2.47137 11.8614 2.76364 11.6459 2.97913L6.50004 8.12496L4.33337 8.66663L4.87504 6.49996L10.0209 1.35413Z" stroke="white" stroke-linecap="round" stroke-linejoin="round"/>
</g>
<defs>
<clipPath id="clip0_1_4259">
<rect width="13" height="13" fill="white"/>
</clipPath>
</defs>
</svg>
