<svg width="40" height="40" viewBox="0 0 40 40" fill="none" xmlns="http://www.w3.org/2000/svg">
<path d="M16.9879 21.3705C17.6173 22.2119 18.4202 22.9081 19.3423 23.4119C20.2644 23.9156 21.2841 24.2152 22.3321 24.2903C23.3802 24.3653 24.4321 24.2141 25.4166 23.8469C26.4011 23.4797 27.2951 22.905 28.0379 22.1619L32.4345 17.7653C33.7693 16.3833 34.5078 14.5324 34.4911 12.6111C34.4744 10.6898 33.7038 8.85196 32.3452 7.49337C30.9866 6.13477 29.1488 5.36414 27.2275 5.34744C25.3062 5.33075 23.4553 6.06933 22.0733 7.40411L19.5526 9.91014" stroke="#585E72" stroke-width="3.47826" stroke-linecap="round" stroke-linejoin="round"/>
<path d="M22.8508 18.4385C22.2214 17.5971 21.4184 16.9009 20.4964 16.3971C19.5743 15.8934 18.5546 15.5938 17.5066 15.5187C16.4585 15.4437 15.4066 15.5949 14.4221 15.9621C13.4376 16.3294 12.5436 16.904 11.8008 17.6471L7.40423 22.0437C6.06945 23.4257 5.33087 25.2767 5.34757 27.1979C5.36426 29.1192 6.1349 30.957 7.49349 32.3156C8.85208 33.6742 10.6899 34.4449 12.6112 34.4616C14.5325 34.4783 16.3834 33.7397 17.7654 32.4049L20.2715 29.8989" stroke="#2C303C" stroke-width="3.47826" stroke-linecap="round" stroke-linejoin="round"/>
</svg>
