<svg width="14" height="14" viewBox="0 0 14 14" fill="none"
    xmlns="http://www.w3.org/2000/svg">
    <g clip-path="url(#clip0_1_2473)">
        <path d="M5.83333 7.58348C6.08384 7.91838 6.40345 8.1955 6.77048 8.39602C7.13751 8.59655 7.54337 8.71579 7.96054 8.74567C8.37771 8.77555 8.79642 8.71536 9.18828 8.56918C9.58014 8.42301 9.93598 8.19427 10.2317 7.89848L11.9817 6.14848C12.513 5.59839 12.8069 4.86163 12.8003 4.09689C12.7936 3.33215 12.4869 2.60061 11.9461 2.05984C11.4054 1.51906 10.6738 1.21232 9.90908 1.20568C9.14434 1.19903 8.40758 1.49301 7.85749 2.02431L6.85416 3.02181M8.16666 6.41681C7.91615 6.0819 7.59654 5.80479 7.22951 5.60426C6.86248 5.40374 6.45661 5.28449 6.03945 5.25461C5.62228 5.22474 5.20357 5.28493 4.81171 5.4311C4.41985 5.57728 4.06401 5.80602 3.76833 6.10181L2.01833 7.85181C1.48703 8.4019 1.19305 9.13866 1.1997 9.9034C1.20634 10.6681 1.51308 11.3997 2.05386 11.9404C2.59463 12.4812 3.32617 12.788 4.09091 12.7946C4.85565 12.8013 5.5924 12.5073 6.14249 11.976L7.13999 10.9785" stroke="#585B6B" stroke-width="1.5" stroke-linecap="round" stroke-linejoin="round"/>
    </g>
    <defs>
        <clipPath id="clip0_1_2473">
            <rect width="14" height="14" fill="white"/>
        </clipPath>
    </defs>
</svg>
