<svg width="23" height="23" viewBox="0 0 23 23" fill="none" xmlns="http://www.w3.org/2000/svg">
<path d="M9.76758 12.2867C10.1295 12.7705 10.5912 13.1708 11.1214 13.4604C11.6516 13.7501 12.2379 13.9224 12.8405 13.9655C13.4431 14.0087 14.048 13.9217 14.6141 13.7106C15.1802 13.4994 15.6942 13.169 16.1213 12.7417L18.6493 10.2137C19.4168 9.41903 19.8415 8.35472 19.8319 7.24999C19.8223 6.14526 19.3792 5.0885 18.598 4.30731C17.8168 3.52612 16.7601 3.083 15.6553 3.0734C14.5506 3.0638 13.4863 3.48848 12.6917 4.25598L11.2423 5.69695" stroke="white" stroke-width="2" stroke-linecap="round" stroke-linejoin="round"/>
<path d="M13.1387 10.6008C12.7768 10.117 12.3151 9.71666 11.7849 9.42699C11.2547 9.13732 10.6684 8.96506 10.0658 8.9219C9.46316 8.87874 8.8583 8.96569 8.29223 9.17685C7.72615 9.38801 7.21211 9.71844 6.78498 10.1457L4.25696 12.6738C3.48946 13.4684 3.06478 14.5327 3.07438 15.6374C3.08398 16.7422 3.52709 17.7989 4.30828 18.5801C5.08948 19.3613 6.14624 19.8044 7.25097 19.814C8.3557 19.8236 9.42 19.3989 10.2147 18.6315L11.6556 17.1905" stroke="#585E72" stroke-width="2" stroke-linecap="round" stroke-linejoin="round"/>
</svg>
