<svg width="15" height="15" viewBox="0 0 15 15" fill="none" xmlns="http://www.w3.org/2000/svg">
<path d="M3.125 13.125C2.43464 13.125 1.875 12.573 1.875 11.8921L1.87501 9.78755C1.87501 9.10665 2.43465 8.55467 3.12501 8.55467H5.00001C5.69036 8.55467 6.25 9.10665 6.25 9.78755L6.25 11.8921C6.25 12.573 5.69036 13.125 5 13.125L3.125 13.125Z" stroke="white" stroke-width="1.2" stroke-linecap="round" stroke-linejoin="round"/>
<path d="M11.875 6.4453C12.5654 6.4453 13.125 5.89333 13.125 5.21243V3.10788C13.125 2.42698 12.5654 1.875 11.875 1.875H10C9.30965 1.875 8.75001 2.42698 8.75001 3.10788L8.75 5.21243C8.75 5.89333 9.30965 6.4453 10 6.4453H11.875Z" stroke="white" stroke-width="1.2" stroke-linecap="round" stroke-linejoin="round"/>
<path d="M3.125 6.4453C2.43465 6.4453 1.87501 5.89333 1.87501 5.21243L1.87501 3.10788C1.87501 2.42698 2.43465 1.875 3.12501 1.875H5.00001C5.69036 1.875 6.25001 2.42698 6.25001 3.10788L6.25 5.21243C6.25 5.89333 5.69036 6.4453 5 6.4453H3.125Z" stroke="white" stroke-width="1.2" stroke-linecap="round" stroke-linejoin="round"/>
<path d="M11.875 13.125C12.5654 13.125 13.125 12.573 13.125 11.8921L13.125 9.78755C13.125 9.10665 12.5654 8.55467 11.875 8.55467H10C9.30965 8.55467 8.75 9.10665 8.75 9.78755L8.75 11.8921C8.75 12.573 9.30964 13.125 10 13.125L11.875 13.125Z" stroke="#585E72" stroke-width="1.2" stroke-linecap="round" stroke-linejoin="round"/>
</svg>
