<svg width="23" height="23" viewBox="0 0 23 23" fill="none" xmlns="http://www.w3.org/2000/svg">
<path d="M1.91602 1.91699H3.16776C3.40352 1.91699 3.52141 1.91699 3.61627 1.96035C3.69988 1.99855 3.77072 2.06 3.82037 2.13736C3.8767 2.22514 3.89338 2.34184 3.92672 2.57524L4.3803 5.75033M4.3803 5.75033L5.38836 13.1596C5.51629 14.0998 5.58025 14.57 5.80503 14.9238C6.0031 15.2356 6.28705 15.4836 6.62273 15.6378C7.00368 15.8128 7.47813 15.8128 8.42704 15.8128H16.6283C17.5316 15.8128 17.9833 15.8128 18.3524 15.6503C18.6778 15.507 18.957 15.276 19.1586 14.9831C19.3873 14.651 19.4718 14.2073 19.6408 13.32L20.9093 6.66045C20.9688 6.34814 20.9986 6.19199 20.9555 6.06993C20.9176 5.96285 20.843 5.87269 20.7449 5.81551C20.6331 5.75033 20.4741 5.75033 20.1562 5.75033H4.3803Z" stroke="white" stroke-width="2" stroke-linecap="round" stroke-linejoin="round"/>
<path d="M8.6263 21.0837C9.15557 21.0837 9.58464 20.6546 9.58464 20.1253C9.58464 19.5961 9.15557 19.167 8.6263 19.167C8.09703 19.167 7.66797 19.5961 7.66797 20.1253C7.66797 20.6546 8.09703 21.0837 8.6263 21.0837Z" stroke="#585E72" stroke-width="2" stroke-linecap="round" stroke-linejoin="round"/>
<path d="M16.293 21.0837C16.8222 21.0837 17.2513 20.6546 17.2513 20.1253C17.2513 19.5961 16.8222 19.167 16.293 19.167C15.7637 19.167 15.3346 19.5961 15.3346 20.1253C15.3346 20.6546 15.7637 21.0837 16.293 21.0837Z" stroke="#585E72" stroke-width="2" stroke-linecap="round" stroke-linejoin="round"/>
</svg>
