<svg width="13" height="13" viewBox="0 0 13 13" fill="none" xmlns="http://www.w3.org/2000/svg">
<path d="M8.12306 4.0594L7.2604 2.47775C7.01263 2.02346 6.88874 1.79632 6.72469 1.72136C6.58173 1.65604 6.41744 1.65603 6.27448 1.72135C6.11042 1.7963 5.98652 2.02344 5.73872 2.47771L4.8759 4.05944C4.80885 4.18234 4.77533 4.24379 4.72946 4.2933C4.6888 4.33718 4.64115 4.37403 4.58845 4.40233C4.52899 4.43427 4.46108 4.45125 4.32526 4.4852L2.47105 4.94876C2.01259 5.06337 1.78336 5.12068 1.67108 5.25129C1.57307 5.3653 1.52685 5.51492 1.54349 5.66435C1.56255 5.83553 1.71953 6.01213 2.03349 6.36533L3.2456 7.72896C3.33581 7.83044 3.38091 7.88118 3.41153 7.9392C3.43867 7.99063 3.45736 8.0461 3.46686 8.10347C3.47759 8.16819 3.47238 8.23588 3.46196 8.37126L3.31174 10.3225C3.27188 10.8403 3.25195 11.0991 3.349 11.2515C3.43356 11.3843 3.57171 11.4737 3.72749 11.4965C3.90625 11.5227 4.13427 11.3985 4.5903 11.1502L6.08466 10.3365C6.2362 10.254 6.31197 10.2127 6.39205 10.1966C6.46293 10.1823 6.53597 10.1823 6.60684 10.1966C6.68691 10.2129 6.76265 10.2542 6.91412 10.3368L8.4081 11.1517C8.86426 11.4005 9.09234 11.5249 9.27118 11.4989C9.42702 11.4761 9.56525 11.3867 9.64988 11.2539C9.74699 11.1015 9.72707 10.8425 9.68722 10.3244L9.53697 8.37123C9.52656 8.23586 9.52135 8.16817 9.53208 8.10346C9.54159 8.04609 9.56027 7.99063 9.58741 7.93921C9.61803 7.88119 9.66313 7.83046 9.75333 7.72898L10.9655 6.36533C11.2794 6.01213 11.4364 5.83553 11.4555 5.66435C11.4721 5.51492 11.4259 5.3653 11.3279 5.25129C11.2156 5.12068 10.9864 5.06337 10.5279 4.94876L8.67372 4.48521C8.53789 4.45125 8.46998 4.43427 8.41051 4.40233C8.35781 4.37402 8.31016 4.33718 8.2695 4.29329C8.22362 4.24377 8.1901 4.18232 8.12306 4.0594Z" stroke="white" stroke-width="1.16053" stroke-linecap="round" stroke-linejoin="round"/>
</svg>
