<svg width="23" height="23" viewBox="0 0 23 23" fill="none"
    xmlns="http://www.w3.org/2000/svg">
    <path d="M16.291 20.125C16.291 18.3389 16.291 17.4458 15.9992 16.7414C15.6102 15.8021 14.8639 15.0559 13.9246 14.6668C13.2202 14.375 12.3271 14.375 10.541 14.375H7.66602C5.87991 14.375 4.98685 14.375 4.2824 14.6668C3.34312 15.0559 2.59687 15.8021 2.20781 16.7414C1.91602 17.4458 1.91602 18.3389 1.91602 20.125M12.9368 6.70833C12.9368 8.82542 11.2206 10.5417 9.10352 10.5417C6.98642 10.5417 5.27018 8.82542 5.27018 6.70833C5.27018 4.59124 6.98642 2.875 9.10352 2.875C11.2206 2.875 12.9368 4.59124 12.9368 6.70833Z" stroke="white" stroke-width="2" stroke-linecap="round" stroke-linejoin="round"/>
    <path d="M21.0846 20.1237V18.207C21.0846 16.4209 19.863 14.92 18.2096 14.4945M14.8555 3.15234C16.2603 3.72101 17.2513 5.09829 17.2513 6.70703C17.2513 8.31578 16.2603 9.69306 14.8555 10.2617" stroke="#585E72" stroke-width="2" stroke-linecap="round" stroke-linejoin="round"/>
</svg>
